Patient4_TMGait_0pt7_02_right_01_GRF.mot
version=1
nRows=78
nColumns=19
inDegrees=no
endheader
time	F1x	F1y	F1z	M1x	M1y	M1z	F2x	F2y	F2z	M2x	M2y	M2z	EC1x	EC1y	EC1z	EC2x	EC2y	EC2z
0.09	-15.4919	747.0881	64.6054	-261.2209	-76.5557	829.8294	7.5096	-15.5486	-17.9485	1.2976	10.2961	-27.7048	-0.0592	0.0182	-0.0073	-0.0462	0.0165	0.9585
0.10143	-13.9379	743.7843	63.268	-259.3279	-73.5831	824.5105	4.9961	-9.7596	-12.3228	1.2217	7.1827	-17.8252	-0.0592	0.0182	-0.0073	-0.0462	0.0165	0.9585
0.11286	-12.2596	740.1714	61.8066	-257.1987	-70.5231	818.2843	2.8664	-4.8232	-7.4628	1.1416	4.4615	-9.4172	-0.0592	0.0182	-0.0073	-0.0462	0.0165	0.9585
0.12429	-10.5033	736.2962	60.4113	-254.9057	-67.6247	811.2611	1.2097	-1.0043	-3.6942	1.0791	2.3347	-2.9245	-0.0592	0.0182	-0.0073	-0.0462	0.0165	0.9585
0.13571	-8.6698	732.2413	59.1683	-252.5305	-64.9838	803.6051	0.068113	1.6657	-1.0405	1.0334	0.81723	1.5989	-0.0592	0.0182	-0.0073	-0.0462	0.0165	0.9585
0.14714	-6.7103	728.2054	58.141	-250.1818	-62.6261	795.6061	-0.66965	3.3737	0.63656	1.0112	-0.14539	4.4867	-0.0592	0.0182	-0.0073	-0.0462	0.0165	0.9585
0.15857	-4.5453	724.4706	57.2808	-247.9848	-60.4523	787.6458	-1.059	4.2995	1.5464	0.99746	-0.67116	6.0486	-0.0592	0.0182	-0.0073	-0.0462	0.0165	0.9585
0.17	-2.1197	721.311	56.6245	-246.0452	-58.4507	780.0947	-1.2377	4.6678	1.9103	0.98376	-0.86869	6.6818	-0.0592	0.0182	-0.0073	-0.0462	0.0165	0.9585
0.18143	0.60693	718.9389	56.1353	-244.4392	-56.5552	773.251	-1.2565	4.6029	1.9139	0.94278	-0.84135	6.6147	-0.0592	0.0182	-0.0073	-0.0462	0.0165	0.9585
0.19286	3.6518	717.4958	55.8566	-243.2064	-54.7933	767.3173	-1.2238	4.2127	1.7082	0.85091	-0.66113	6.0655	-0.0592	0.0182	-0.0073	-0.0462	0.0165	0.9585
0.20429	6.9807	717.0894	55.7724	-242.3749	-53.1583	762.4398	-1.1502	3.5076	1.3948	0.67093	-0.39464	5.0727	-0.0592	0.0182	-0.0073	-0.0462	0.0165	0.9585
0.21571	10.5777	717.8351	55.8815	-241.9737	-51.6515	758.7439	-1.0996	2.494	1.0477	0.37343	-0.085833	3.6869	-0.0592	0.0182	-0.0073	-0.0462	0.0165	0.9585
0.22714	14.3614	719.8632	56.1827	-242.0392	-50.289	756.3609	-1.041	1.1239	0.70786	-0.073392	0.22301	1.8513	-0.0592	0.0182	-0.0073	-0.0462	0.0165	0.9585
0.23857	18.2642	723.2889	56.6651	-242.6091	-49.0765	755.3788	-1.0043	-0.58696	0.41871	-0.6735	0.48951	-0.38521	-0.0592	0.0182	-0.0073	-0.0462	0.0165	0.9585
0.25	22.1832	728.2087	57.3531	-243.7128	-48.0615	755.9022	-0.93652	-2.5913	0.21657	-1.406	0.6455	-2.9671	-0.0592	0.0182	-0.0073	-0.0462	0.0165	0.9585
0.26143	26.0402	734.5896	58.2437	-245.3411	-47.2602	757.8831	-0.83085	-4.6778	0.15431	-2.1862	0.6105	-5.6164	-0.0592	0.0182	-0.0073	-0.0462	0.0165	0.9585
0.27286	29.718	742.2477	59.3672	-247.429	-46.7279	761.148	-0.59742	-6.4851	0.30214	-2.86	0.27131	-7.891	-0.0592	0.0182	-0.0073	-0.0462	0.0165	0.9585
0.28429	33.1522	750.7107	60.7173	-249.8154	-46.4755	765.2176	-0.2108	-7.3253	0.75085	-3.1522	-0.49455	-8.9256	-0.0592	0.0182	-0.0073	-0.0462	0.0165	0.9585
0.29571	36.2611	759.2216	62.2942	-252.2388	-46.5268	769.3599	0.41524	-6.2144	1.6002	-2.6643	-1.8334	-7.5194	-0.0592	0.0182	-0.0073	-0.0462	0.0165	0.9585
0.30714	39.0414	766.8012	64.0509	-254.3642	-46.8472	772.6155	1.2954	-1.7791	2.9463	-0.84908	-3.8645	-1.954	-0.0592	0.0182	-0.0073	-0.0462	0.0165	0.9585
0.31857	41.4671	772.4176	65.8854	-255.8398	-47.3533	774.0146	2.4597	7.628	4.8445	2.9511	-6.6502	9.8078	-0.0592	0.0182	-0.0073	-0.0462	0.0165	0.9585
0.33	43.5746	775.0861	67.6479	-256.3331	-47.8987	772.6221	3.8195	23.8242	7.2659	9.451	-10.1002	30.043	-0.0592	0.0182	-0.0073	-0.0462	0.0165	0.9585
0.34143	45.3574	773.9324	69.1266	-255.5552	-48.2923	767.6556	5.2129	48.3802	10.0217	19.2657	-13.8871	60.6928	-0.0592	0.0182	-0.0073	-0.0462	0.0165	0.9585
0.35286	46.8299	768.1956	70.0998	-253.2673	-48.3371	758.4202	6.2625	82.0838	12.665	32.6818	-17.29	102.7297	-0.0592	0.0182	-0.0073	-0.0462	0.0165	0.9585
0.36429	47.9671	757.2503	70.2969	-249.2844	-47.8027	744.3778	6.3314	124.0848	14.4634	49.3277	-19.1479	155.0517	-0.0592	0.0182	-0.0073	-0.0462	0.0165	0.9585
0.37571	48.8016	740.6149	69.4659	-243.4743	-46.4649	725.0881	4.4754	171.0303	14.594	67.8266	-18.0934	213.4591	-0.0592	0.0182	-0.0073	-0.0462	0.0165	0.9585
0.38714	49.354	718.0039	67.4112	-235.7738	-44.1532	700.3084	0.49244	216.988	12.2673	85.8198	-13.2032	270.4927	-0.0592	0.0182	-0.0073	-0.0462	0.0165	0.9585
0.39857	49.7053	689.4903	64.0548	-226.2401	-40.7891	670.1018	-4.8202	256.4856	7.6835	101.1673	-5.1756	319.2756	-0.0592	0.0182	-0.0073	-0.0462	0.0165	0.9585
0.41	49.8661	655.6726	59.4605	-215.0856	-36.4397	635.0707	-10.58	287.5452	1.8793	113.1256	4.3777	357.2066	-0.0592	0.0182	-0.0073	-0.0462	0.0165	0.9585
0.42143	49.8381	617.4007	53.829	-202.5879	-31.2919	596.0491	-16.0878	311.6538	-4.5454	122.2935	14.4346	386.0785	-0.0592	0.0182	-0.0073	-0.0462	0.0165	0.9585
0.43286	49.5571	575.5755	47.439	-189.0172	-25.6124	553.9619	-20.8496	331.7031	-10.6126	129.86	23.6876	409.4446	-0.0592	0.0182	-0.0073	-0.0462	0.0165	0.9585
0.44429	48.941	530.963	40.5255	-174.5956	-19.6242	509.5773	-24.5925	350.5847	-15.7691	136.9989	31.3685	430.9147	-0.0592	0.0182	-0.0073	-0.0462	0.0165	0.9585
0.45571	47.8237	484.2476	33.3168	-159.5081	-13.5693	463.608	-27.1853	370.4976	-19.5159	144.6049	36.8768	453.2252	-0.0592	0.0182	-0.0073	-0.0462	0.0165	0.9585
0.46714	46.0564	436.0157	26.0513	-143.9136	-7.695	416.6105	-28.608	392.5809	-21.7352	153.1328	40.088	477.7956	-0.0592	0.0182	-0.0073	-0.0462	0.0165	0.9585
0.47857	43.4459	386.956	19.0416	-128.0008	-2.3274	369.2332	-28.9966	417.1622	-22.7252	162.6843	41.4045	505.0569	-0.0592	0.0182	-0.0073	-0.0462	0.0165	0.9585
0.49	39.896	337.857	12.6791	-112.0027	2.1619	322.1623	-28.5496	444.0412	-23.0611	173.1329	41.5882	534.7942	-0.0592	0.0182	-0.0073	-0.0462	0.0165	0.9585
0.50143	35.3575	289.7328	7.29	-96.2347	5.4715	276.3087	-27.5307	472.8909	-23.6723	184.2801	41.7906	566.6491	-0.0592	0.0182	-0.0073	-0.0462	0.0165	0.9585
0.51286	29.968	243.7084	3.1181	-81.0684	7.4188	232.6392	-26.2145	503.4392	-25.2517	195.9651	42.9282	600.2597	-0.0592	0.0182	-0.0073	-0.0462	0.0165	0.9585
0.52429	23.9551	200.9699	0.20575	-66.9135	8.0315	192.2075	-24.9306	535.5404	-28.4053	208.0903	45.7951	635.416	-0.0592	0.0182	-0.0073	-0.0462	0.0165	0.9585
0.53571	17.7009	162.498	-1.513	-54.1213	7.4849	155.848	-23.9161	569.1124	-33.1406	220.6243	50.5095	671.9325	-0.0592	0.0182	-0.0073	-0.0462	0.0165	0.9585
0.54714	11.6127	128.8881	-2.2573	-42.9147	6.1106	124.0747	-23.2654	604.031	-39.2358	233.5393	56.8445	709.6019	-0.0592	0.0182	-0.0073	-0.0462	0.0165	0.9585
0.55857	6.1166	100.2167	-2.2778	-33.3401	4.2725	96.901	-22.8876	639.922	-46.1139	246.7358	64.1249	747.9122	-0.0592	0.0182	-0.0073	-0.0462	0.0165	0.9585
0.57	1.4647	76.1885	-1.8711	-25.3137	2.324	74.0474	-22.6589	675.9939	-53.246	259.9503	71.6922	785.9165	-0.0592	0.0182	-0.0073	-0.0462	0.0165	0.9585
0.58143	-2.1303	56.3133	-1.2655	-18.6823	0.53803	55.0509	-22.4361	710.9703	-60.1532	272.7323	78.9435	822.1463	-0.0592	0.0182	-0.0073	-0.0462	0.0165	0.9585
0.59286	-4.5885	40.1223	-0.64968	-13.2923	-0.88234	39.5238	-22.1064	743.2722	-66.4745	284.5022	85.4254	854.8406	-0.0592	0.0182	-0.0073	-0.0462	0.0165	0.9585
0.60429	-5.8437	27.205	-0.13893	-9.0051	-1.8075	27.0936	-21.5854	771.2921	-71.9674	294.6618	90.836	882.2462	-0.0592	0.0182	-0.0073	-0.0462	0.0165	0.9585
0.61571	-5.9601	17.264	0.2121	-5.7161	-2.2026	17.5263	-20.8174	793.6749	-76.4477	302.7017	94.9643	902.9472	-0.0592	0.0182	-0.0073	-0.0462	0.0165	0.9585
0.62714	-5.167	10.0264	0.40412	-3.3341	-2.1458	10.5453	-19.7597	809.4939	-79.8804	308.273	97.7697	916.033	-0.0592	0.0182	-0.0073	-0.0462	0.0165	0.9585
0.63857	-4.0135	5.2694	0.471	-1.7752	-1.8423	5.9667	-18.4014	818.358	-82.219	311.232	99.2191	921.1956	-0.0592	0.0182	-0.0073	-0.0462	0.0165	0.9585
0.65	-2.7866	2.5071	0.4707	-0.87529	-1.4478	3.3208	-16.7223	820.4239	-83.5273	311.6438	99.3847	918.7327	-0.0592	0.0182	-0.0073	-0.0462	0.0165	0.9585
0.66143	-1.7302	1.2467	0.42984	-0.46605	-1.0637	2.1641	-14.7115	816.4318	-83.8176	309.7964	98.3005	909.5527	-0.0592	0.0182	-0.0073	-0.0462	0.0165	0.9585
0.67286	-0.88801	0.97416	0.38	-0.38027	-0.73958	1.9687	-12.3868	807.5602	-83.1901	306.1378	96.1025	895.037	-0.0592	0.0182	-0.0073	-0.0462	0.0165	0.9585
0.68429	-0.30081	1.3135	0.32987	-0.49214	-0.49581	2.3808	-9.7852	795.2083	-81.7985	301.1964	92.9883	876.7898	-0.0592	0.0182	-0.0073	-0.0462	0.0165	0.9585
0.69571	0.079061	1.9641	0.28351	-0.70357	-0.3263	3.0723	-6.988	780.8203	-79.8708	295.5093	89.2462	856.4382	-0.0592	0.0182	-0.0073	-0.0462	0.0165	0.9585
0.70714	0.26569	2.7227	0.24833	-0.94748	-0.23354	3.8802	-4.0703	765.7602	-77.6652	289.5835	85.1927	835.488	-0.0592	0.0182	-0.0073	-0.0462	0.0165	0.9585
0.71857	0.33331	3.4543	0.22379	-1.1814	-0.19694	4.6471	-1.1536	751.2559	-75.3982	283.8746	81.1149	815.2755	-0.0592	0.0182	-0.0073	-0.0462	0.0165	0.9585
0.73	0.28296	4.0658	0.21701	-1.3745	-0.21961	5.2875	1.6677	738.2988	-73.2657	278.7528	77.2639	796.8497	-0.0592	0.0182	-0.0073	-0.0462	0.0165	0.9585
0.74143	0.18504	4.4841	0.22188	-1.5034	-0.27429	5.6938	4.2972	727.6036	-71.3653	274.4882	73.782	780.9529	-0.0592	0.0182	-0.0073	-0.0462	0.0165	0.9585
0.75286	0.036315	4.6337	0.23851	-1.5427	-0.35758	5.7872	6.7146	719.5423	-69.7787	271.2272	70.7638	767.9359	-0.0592	0.0182	-0.0073	-0.0462	0.0165	0.9585
0.76429	-0.13078	4.4057	0.26669	-1.4573	-0.45924	5.4262	8.9112	714.2062	-68.4981	269.0101	68.2028	757.8457	-0.0592	0.0182	-0.0073	-0.0462	0.0165	0.9585
0.77571	-0.3107	3.6967	0.29146	-1.2114	-0.56199	4.5005	10.9349	711.3802	-67.5068	267.7636	66.058	750.3957	-0.0592	0.0182	-0.0073	-0.0462	0.0165	0.9585
0.78714	-0.484	2.367	0.3188	-0.75691	-0.66114	2.8217	12.8211	710.6416	-66.7314	267.3317	64.235	745.1083	-0.0592	0.0182	-0.0073	-0.0462	0.0165	0.9585
0.79857	-0.63844	0.34024	0.32396	-0.063213	-0.72419	0.29105	14.6562	711.3671	-66.1172	267.4825	62.6429	741.2973	-0.0592	0.0182	-0.0073	-0.0462	0.0165	0.9585
0.81	-0.72076	-2.4314	0.30729	0.88592	-0.72899	-3.1537	16.4858	712.8532	-65.6055	267.9484	61.1966	738.2436	-0.0592	0.0182	-0.0073	-0.0462	0.0165	0.9585
0.82143	-0.69256	-5.8304	0.23247	2.051	-0.61627	-7.3691	18.3963	714.3264	-65.151	268.4362	59.8165	735.1376	-0.0592	0.0182	-0.0073	-0.0462	0.0165	0.9585
0.83286	-0.44051	-9.5339	0.091672	3.3194	-0.3295	-11.9508	20.4087	715.0483	-64.7235	268.658	58.4501	731.2506	-0.0592	0.0182	-0.0073	-0.0462	0.0165	0.9585
0.84429	0.13914	-12.8537	-0.15794	4.4482	0.21598	-16.0477	22.5891	714.3213	-64.2916	268.3405	57.0308	725.8775	-0.0592	0.0182	-0.0073	-0.0462	0.0165	0.9585
0.85571	1.1821	-14.6118	-0.53056	5.024	1.0851	-18.2255	24.9282	711.5879	-63.8627	267.2568	55.5458	718.5009	-0.0592	0.0182	-0.0073	-0.0462	0.0165	0.9585
0.86714	2.8049	-13.0277	-1.0436	4.4235	2.3348	-16.2895	27.4489	706.4432	-63.4446	265.2445	53.9738	708.7398	-0.0592	0.0182	-0.0073	-0.0462	0.0165	0.9585
0.87857	5.0703	-5.6675	-1.6711	1.8003	3.9535	-7.268	30.0869	698.7577	-63.0661	262.2365	52.3426	696.5442	-0.0592	0.0182	-0.0073	-0.0462	0.0165	0.9585
0.89	7.9251	10.4848	-2.3478	-3.8873	5.8353	12.5504	32.7998	688.5331	-62.7286	258.2251	50.6587	681.9636	-0.0592	0.0182	-0.0073	-0.0462	0.0165	0.9585
0.90143	11.1373	38.7371	-2.944	-13.7763	7.7273	47.2384	35.4589	675.886	-62.4003	253.2466	48.9297	665.2055	-0.0592	0.0182	-0.0073	-0.0462	0.0165	0.9585
0.91286	14.1495	82.0764	-3.2236	-28.8836	9.1348	100.5017	37.9701	660.7998	-61.97	247.3115	47.0951	646.3111	-0.0592	0.0182	-0.0073	-0.0462	0.0165	0.9585
0.92429	16.0169	142.1023	-2.8491	-49.7308	9.2951	174.3551	40.1429	643.071	-61.236	240.3716	45.0477	625.1922	-0.0592	0.0182	-0.0073	-0.0462	0.0165	0.9585
0.93571	15.2597	217.43	-1.3512	-75.7866	7.0973	267.1457	41.8373	622.1618	-59.914	232.2682	42.6021	601.4161	-0.0592	0.0182	-0.0073	-0.0462	0.0165	0.9585
0.94714	10.0292	301.8233	1.8706	-104.8334	1.1735	371.2666	42.8395	597.2514	-57.7127	222.7345	39.5901	574.3107	-0.0592	0.0182	-0.0073	-0.0462	0.0165	0.9585
0.95857	-0.037375	384.1072	7.5545	-132.9516	-9.437	472.9972	43.0287	567.3933	-54.4489	211.452	35.9262	543.0202	-0.0592	0.0182	-0.0073	-0.0462	0.0165	0.9585
0.97	-12.1372	452.6053	16.1356	-156.1508	-24.1229	557.6178	42.2654	531.9522	-50.134	198.1974	31.7139	506.9858	-0.0592	0.0182	-0.0073	-0.0462	0.0165	0.9585
